<svg width="188" height="56" viewBox="0 0 188 56" fill="none" xmlns="http://www.w3.org/2000/svg">
<rect x="0.5" y="0.5" width="187" height="55" rx="4.5" fill="black"/>
<path d="M94.8852 30.4516C91.6098 30.4516 88.9402 32.9562 88.9402 36.4058C88.9402 39.8344 91.6098 42.36 94.8852 42.36C98.162 42.36 100.832 39.8344 100.832 36.4058C100.83 32.9562 98.1606 30.4516 94.8852 30.4516ZM94.8852 40.0164C93.0902 40.0164 91.543 38.5282 91.543 36.4072C91.543 34.2638 93.0915 32.798 94.8852 32.798C96.6803 32.798 98.2274 34.2638 98.2274 36.4072C98.2274 38.5268 96.6803 40.0164 94.8852 40.0164ZM81.9146 30.4516C78.6392 30.4516 75.9696 32.9562 75.9696 36.4058C75.9696 39.8344 78.6392 42.36 81.9146 42.36C85.1914 42.36 87.861 39.8344 87.861 36.4058C87.861 32.9562 85.1914 30.4516 81.9146 30.4516ZM81.9146 40.0164C80.1195 40.0164 78.5724 38.5282 78.5724 36.4072C78.5724 34.2638 80.1209 32.798 81.9146 32.798C83.7096 32.798 85.2568 34.2638 85.2568 36.4072C85.2582 38.5268 83.7096 40.0164 81.9146 40.0164ZM66.4875 32.28V34.8056H72.5007C72.321 36.2266 71.8503 37.264 71.1317 37.985C70.2572 38.8642 68.8883 39.8344 66.4875 39.8344C62.7859 39.8344 59.8921 36.8342 59.8921 33.113C59.8921 29.3918 62.7859 26.3916 66.4875 26.3916C68.4844 26.3916 69.9425 27.1812 71.019 28.1962L72.7917 26.414C71.2877 24.9706 69.2921 23.866 66.4875 23.866C61.417 23.866 57.1543 28.0156 57.1543 33.113C57.1543 38.2104 61.417 42.36 66.4875 42.36C69.2239 42.36 71.2891 41.457 72.9031 39.7658C74.5631 38.097 75.0798 35.7506 75.0798 33.8564C75.0798 33.2712 75.0352 32.7294 74.9447 32.2786H66.4875V32.28ZM129.583 34.2414C129.09 32.9114 127.586 30.4516 124.513 30.4516C121.461 30.4516 118.926 32.8652 118.926 36.4058C118.926 39.7434 121.439 42.36 124.804 42.36C127.518 42.36 129.089 40.6912 129.74 39.721L127.721 38.3672C127.049 39.3598 126.128 40.0136 124.804 40.0136C123.481 40.0136 122.538 39.4046 121.932 38.209L129.852 34.9162L129.583 34.2414ZM121.506 36.2266C121.439 33.925 123.279 32.7532 124.603 32.7532C125.635 32.7532 126.51 33.2726 126.802 34.016L121.506 36.2266ZM115.068 42.0002H117.669V24.4988H115.068V42.0002ZM110.804 31.783H110.715C110.131 31.083 109.009 30.4516 107.597 30.4516C104.635 30.4516 101.921 33.0682 101.921 36.4296C101.921 39.7672 104.635 42.3614 107.597 42.3614C109.01 42.3614 110.131 41.73 110.715 41.009H110.804V41.8658C110.804 44.1436 109.592 45.3616 107.641 45.3616C106.048 45.3616 105.061 44.2122 104.657 43.242L102.391 44.1898C103.042 45.7676 104.768 47.708 107.641 47.708C110.693 47.708 113.273 45.9034 113.273 41.5046V30.8142H110.805V31.783H110.804ZM107.821 40.0164C106.026 40.0164 104.523 38.5044 104.523 36.4296C104.523 34.331 106.026 32.798 107.821 32.798C109.592 32.798 110.984 34.331 110.984 36.4296C110.984 38.5044 109.592 40.0164 107.821 40.0164ZM141.774 24.4988H135.548V42.0002H138.145V35.3698H141.772C144.652 35.3698 147.485 33.274 147.485 29.935C147.485 26.596 144.654 24.4988 141.774 24.4988ZM141.841 32.9338H138.145V26.9348H141.841C143.783 26.9348 144.886 28.5518 144.886 29.935C144.886 31.2902 143.783 32.9338 141.841 32.9338ZM157.9 30.4208C156.019 30.4208 154.07 31.2538 153.264 33.1004L155.57 34.0678C156.063 33.1004 156.982 32.784 157.945 32.784C159.288 32.784 160.655 33.5946 160.677 35.0352V35.2158C160.206 34.9456 159.198 34.541 157.967 34.541C155.481 34.541 152.949 35.9144 152.949 38.4806C152.949 40.8228 154.988 42.3306 157.272 42.3306C159.018 42.3306 159.982 41.5424 160.586 40.6184H160.675V41.9694H163.185V35.2592C163.186 32.154 160.877 30.4208 157.9 30.4208ZM157.585 40.0122C156.736 40.0122 155.548 39.5838 155.548 38.5254C155.548 37.1744 157.027 36.6564 158.304 36.6564C159.444 36.6564 159.983 36.9042 160.677 37.2416C160.475 38.8642 159.087 40.0122 157.585 40.0122ZM172.323 30.803L169.344 38.391H169.255L166.164 30.803H163.365L168.001 41.408L165.357 47.3076H168.067L175.213 30.803H172.323ZM148.919 42.0002H151.516V24.4988H148.919V42.0002Z" fill="white"/>
<path d="M66.0334 14.3402C66.0334 15.5134 65.688 16.4472 64.9959 17.1444C64.2105 17.9732 63.1856 18.3876 61.9266 18.3876C60.7207 18.3876 59.6943 17.9676 58.8518 17.1276C58.0079 16.2862 57.5859 15.2446 57.5859 14.0014C57.5859 12.7568 58.0079 11.7152 58.8518 10.8752C59.6943 10.0338 60.7207 9.61382 61.9266 9.61382C62.5255 9.61382 63.0978 9.73142 63.6409 9.96522C64.1854 10.2004 64.6213 10.5126 64.9472 10.9032L64.2133 11.6424C63.6604 10.9774 62.8987 10.6456 61.9253 10.6456C61.0451 10.6456 60.2848 10.9564 59.6428 11.578C59.0008 12.1996 58.6805 13.0074 58.6805 14C58.6805 14.9926 59.0008 15.8004 59.6428 16.422C60.2848 17.0436 61.0451 17.3544 61.9253 17.3544C62.8583 17.3544 63.6368 17.0422 64.2592 16.4164C64.6631 16.009 64.897 15.442 64.9597 14.7154H61.9253V13.706H65.9735C66.0153 13.9258 66.0334 14.1372 66.0334 14.3402Z" fill="white"/>
<path d="M72.4534 10.8319H68.6488V13.4947H72.0802V14.5041H68.6488V17.1669H72.4534V18.2001H67.5751V9.8001H72.4534V10.8319Z" fill="white"/>
<path d="M76.9805 18.2001H75.9069V10.8319H73.5729V9.8001H79.3145V10.8319H76.9805V18.2001Z" fill="white"/>
<path d="M83.4686 18.2001V9.8001H84.5423V18.2001H83.4686Z" fill="white"/>
<path d="M89.3038 18.2001H88.2301V10.8319H85.8961V9.8001H91.6378V10.8319H89.3038V18.2001Z" fill="white"/>
<path d="M102.507 17.1151C101.685 17.9635 100.664 18.3877 99.4429 18.3877C98.2216 18.3877 97.2008 17.9635 96.3806 17.1151C95.559 16.2667 95.1495 15.2279 95.1495 14.0001C95.1495 12.7723 95.559 11.7335 96.3806 10.8851C97.2008 10.0367 98.2216 9.61108 99.4429 9.61108C100.657 9.61108 101.677 10.0381 102.501 10.8907C103.325 11.7433 103.738 12.7793 103.738 14.0001C103.738 15.2279 103.327 16.2667 102.507 17.1151ZM97.173 16.4109C97.7913 17.0409 98.5475 17.3545 99.4429 17.3545C100.338 17.3545 101.096 17.0395 101.713 16.4109C102.331 15.7809 102.642 14.9773 102.642 14.0001C102.642 13.0229 102.331 12.2193 101.713 11.5893C101.096 10.9593 100.338 10.6457 99.4429 10.6457C98.5475 10.6457 97.7913 10.9607 97.173 11.5893C96.5561 12.2193 96.2455 13.0229 96.2455 14.0001C96.2455 14.9773 96.5561 15.7809 97.173 16.4109Z" fill="white"/>
<path d="M105.244 18.2001V9.8001H106.551L110.612 16.3339H110.657L110.612 14.7155V9.8001H111.685V18.2001H110.564L106.315 11.3485H106.269L106.315 12.9669V18.2001H105.244Z" fill="white"/>
<path d="M66.0334 14.3402C66.0334 15.5134 65.688 16.4472 64.9959 17.1444C64.2105 17.9732 63.1856 18.3876 61.9266 18.3876C60.7207 18.3876 59.6943 17.9676 58.8518 17.1276C58.0079 16.2862 57.5859 15.2446 57.5859 14.0014C57.5859 12.7568 58.0079 11.7152 58.8518 10.8752C59.6943 10.0338 60.7207 9.61382 61.9266 9.61382C62.5255 9.61382 63.0978 9.73142 63.6409 9.96522C64.1854 10.2004 64.6213 10.5126 64.9472 10.9032L64.2133 11.6424C63.6604 10.9774 62.8987 10.6456 61.9253 10.6456C61.0451 10.6456 60.2848 10.9564 59.6428 11.578C59.0008 12.1996 58.6805 13.0074 58.6805 14C58.6805 14.9926 59.0008 15.8004 59.6428 16.422C60.2848 17.0436 61.0451 17.3544 61.9253 17.3544C62.8583 17.3544 63.6368 17.0422 64.2592 16.4164C64.6631 16.009 64.897 15.442 64.9597 14.7154H61.9253V13.706H65.9735C66.0153 13.9258 66.0334 14.1372 66.0334 14.3402Z" stroke="white" stroke-width="0.2" stroke-miterlimit="10"/>
<path d="M72.4534 10.8319H68.6488V13.4947H72.0802V14.5041H68.6488V17.1669H72.4534V18.2001H67.5751V9.8001H72.4534V10.8319Z" stroke="white" stroke-width="0.2" stroke-miterlimit="10"/>
<path d="M76.9805 18.2001H75.9069V10.8319H73.5729V9.8001H79.3145V10.8319H76.9805V18.2001Z" stroke="white" stroke-width="0.2" stroke-miterlimit="10"/>
<path d="M83.4686 18.2001V9.8001H84.5423V18.2001H83.4686Z" stroke="white" stroke-width="0.2" stroke-miterlimit="10"/>
<path d="M89.3038 18.2001H88.2301V10.8319H85.8961V9.8001H91.6378V10.8319H89.3038V18.2001Z" stroke="white" stroke-width="0.2" stroke-miterlimit="10"/>
<path d="M102.507 17.1151C101.685 17.9635 100.664 18.3877 99.4429 18.3877C98.2216 18.3877 97.2008 17.9635 96.3806 17.1151C95.559 16.2667 95.1495 15.2279 95.1495 14.0001C95.1495 12.7723 95.559 11.7335 96.3806 10.8851C97.2008 10.0367 98.2216 9.61108 99.4429 9.61108C100.657 9.61108 101.677 10.0381 102.501 10.8907C103.325 11.7433 103.738 12.7793 103.738 14.0001C103.738 15.2279 103.327 16.2667 102.507 17.1151ZM97.173 16.4109C97.7913 17.0409 98.5475 17.3545 99.4429 17.3545C100.338 17.3545 101.096 17.0395 101.713 16.4109C102.331 15.7809 102.642 14.9773 102.642 14.0001C102.642 13.0229 102.331 12.2193 101.713 11.5893C101.096 10.9593 100.338 10.6457 99.4429 10.6457C98.5475 10.6457 97.7913 10.9607 97.173 11.5893C96.5561 12.2193 96.2455 13.0229 96.2455 14.0001C96.2455 14.9773 96.5561 15.7809 97.173 16.4109Z" stroke="white" stroke-width="0.2" stroke-miterlimit="10"/>
<path d="M105.244 18.2001V9.8001H106.551L110.612 16.3339H110.657L110.612 14.7155V9.8001H111.685V18.2001H110.564L106.315 11.3485H106.269L106.315 12.9669V18.2001H105.244Z" stroke="white" stroke-width="0.2" stroke-miterlimit="10"/>
<g filter="url(#filter0_ii_761_701)">
<path d="M14.5334 10.5531C14.1282 10.9843 13.8887 11.6535 13.8887 12.5201V43.4825C13.8887 44.3505 14.1282 45.0183 14.5334 45.4495L14.6365 45.5503L31.8893 28.2057V28.0013V27.7969L14.6365 10.4509L14.5334 10.5531Z" fill="url(#paint0_linear_761_701)"/>
<path d="M37.6387 33.9893L31.8887 28.2059V28.0015V27.7971L37.6401 22.0151L37.7696 22.0893L44.5835 25.9813C46.529 27.0929 46.529 28.9115 44.5835 30.0245L37.7696 33.9165L37.6387 33.9893Z" fill="url(#paint1_linear_761_701)"/>
<g filter="url(#filter1_i_761_701)">
<path d="M37.77 33.9151L31.8877 28.0015L14.5332 45.4497C15.1738 46.1329 16.2336 46.2169 17.427 45.5365L37.77 33.9151Z" fill="url(#paint2_linear_761_701)"/>
</g>
<path d="M37.77 22.0878L17.427 10.4678C16.2336 9.78602 15.1738 9.87142 14.5332 10.5546L31.8891 28.0028L37.77 22.0878Z" fill="url(#paint3_linear_761_701)"/>
</g>
<rect x="0.5" y="0.5" width="187" height="55" rx="4.5" stroke="#A6A6A6"/>
<defs>
<filter id="filter0_ii_761_701" x="13.8887" y="9.99731" width="32.1543" height="36.009" filterUnits="userSpaceOnUse" color-interpolation-filters="sRGB">
<feFlood flood-opacity="0" result="BackgroundImageFix"/>
<feBlend mode="normal" in="SourceGraphic" in2="BackgroundImageFix" result="shape"/>
<feColorMatrix in="SourceAlpha" type="matrix" values="0 0 0 0 0 0 0 0 0 0 0 0 0 0 0 0 0 0 127 0" result="hardAlpha"/>
<feOffset dy="-0.15"/>
<feComposite in2="hardAlpha" operator="arithmetic" k2="-1" k3="1"/>
<feColorMatrix type="matrix" values="0 0 0 0 0 0 0 0 0 0 0 0 0 0 0 0 0 0 0.12 0"/>
<feBlend mode="normal" in2="shape" result="effect1_innerShadow_761_701"/>
<feColorMatrix in="SourceAlpha" type="matrix" values="0 0 0 0 0 0 0 0 0 0 0 0 0 0 0 0 0 0 127 0" result="hardAlpha"/>
<feOffset dy="0.15"/>
<feComposite in2="hardAlpha" operator="arithmetic" k2="-1" k3="1"/>
<feColorMatrix type="matrix" values="0 0 0 0 1 0 0 0 0 1 0 0 0 0 1 0 0 0 0.25 0"/>
<feBlend mode="normal" in2="effect1_innerShadow_761_701" result="effect2_innerShadow_761_701"/>
</filter>
<filter id="filter1_i_761_701" x="14.5332" y="28.0015" width="23.2363" height="18.0049" filterUnits="userSpaceOnUse" color-interpolation-filters="sRGB">
<feFlood flood-opacity="0" result="BackgroundImageFix"/>
<feBlend mode="normal" in="SourceGraphic" in2="BackgroundImageFix" result="shape"/>
<feColorMatrix in="SourceAlpha" type="matrix" values="0 0 0 0 0 0 0 0 0 0 0 0 0 0 0 0 0 0 127 0" result="hardAlpha"/>
<feOffset dy="-0.15"/>
<feComposite in2="hardAlpha" operator="arithmetic" k2="-1" k3="1"/>
<feColorMatrix type="matrix" values="0 0 0 0 0 0 0 0 0 0 0 0 0 0 0 0 0 0 0.08 0"/>
<feBlend mode="normal" in2="shape" result="effect1_innerShadow_761_701"/>
</filter>
<linearGradient id="paint0_linear_761_701" x1="30.36" y1="12.1925" x2="6.86551" y2="35.5627" gradientUnits="userSpaceOnUse">
<stop stop-color="#00A0FF"/>
<stop offset="0.0066" stop-color="#00A1FF"/>
<stop offset="0.2601" stop-color="#00BEFF"/>
<stop offset="0.5122" stop-color="#00D2FF"/>
<stop offset="0.7604" stop-color="#00DFFF"/>
<stop offset="1" stop-color="#00E3FF"/>
</linearGradient>
<linearGradient id="paint1_linear_761_701" x1="47.116" y1="28.0015" x2="13.4209" y2="28.0015" gradientUnits="userSpaceOnUse">
<stop stop-color="#FFE000"/>
<stop offset="0.4087" stop-color="#FFBD00"/>
<stop offset="0.7754" stop-color="#FFA500"/>
<stop offset="1" stop-color="#FF9C00"/>
</linearGradient>
<linearGradient id="paint2_linear_761_701" x1="34.5755" y1="31.2129" x2="2.71409" y2="62.9058" gradientUnits="userSpaceOnUse">
<stop stop-color="#FF3A44"/>
<stop offset="1" stop-color="#C31162"/>
</linearGradient>
<linearGradient id="paint3_linear_761_701" x1="10.1624" y1="0.24754" x2="24.3894" y2="14.3993" gradientUnits="userSpaceOnUse">
<stop stop-color="#32A071"/>
<stop offset="0.0685" stop-color="#2DA771"/>
<stop offset="0.4762" stop-color="#15CF74"/>
<stop offset="0.8009" stop-color="#06E775"/>
<stop offset="1" stop-color="#00F076"/>
</linearGradient>
</defs>
</svg>
