<svg width="188" height="56" viewBox="0 0 188 56" fill="none" xmlns="http://www.w3.org/2000/svg">
<rect x="0.5" y="0.5" width="187" height="55" rx="6.5" fill="#0C0D10"/>
<path d="M113.533 26.8813V30.0887H111.533V32.1921H113.533V39.3391C113.533 41.7795 114.631 42.7557 117.394 42.7557C117.879 42.7557 118.342 42.6976 118.746 42.6278V40.5477C118.399 40.5825 118.18 40.6058 117.798 40.6058C116.561 40.6058 116.018 40.0247 116.018 38.6999V32.1921H118.746V30.0887H116.018V26.8813H113.533Z" fill="white"/>
<path d="M125.784 42.93C129.46 42.93 131.714 40.4547 131.714 36.3524C131.714 32.2734 129.448 29.7865 125.784 29.7865C122.108 29.7865 119.842 32.2734 119.842 36.3524C119.842 40.4547 122.097 42.93 125.784 42.93ZM125.784 40.7104C123.622 40.7104 122.409 39.1183 122.409 36.3524C122.409 33.6099 123.622 32.0062 125.784 32.0062C127.934 32.0062 129.16 33.6099 129.16 36.3524C129.16 39.1066 127.934 40.7104 125.784 40.7104Z" fill="white"/>
<path d="M133.643 42.6859H136.128V35.2136C136.128 33.4355 137.457 32.2386 139.342 32.2386C139.781 32.2386 140.521 32.3199 140.729 32.3896V29.926C140.463 29.8563 139.989 29.8214 139.619 29.8214C137.978 29.8214 136.579 30.7278 136.221 31.9713H136.036V30.0306H133.643V42.6859Z" fill="white"/>
<path d="M146.9 31.9132C148.738 31.9132 149.94 33.2031 149.998 35.1903H143.64C143.779 33.2147 145.062 31.9132 146.9 31.9132ZM149.986 39.2693C149.524 40.2571 148.495 40.8033 146.992 40.8033C145.004 40.8033 143.721 39.3972 143.64 37.1775V37.0381H152.529V36.1665C152.529 32.1921 150.414 29.7865 146.911 29.7865C143.363 29.7865 141.108 32.3548 141.108 36.3989C141.108 40.4431 143.316 42.93 146.923 42.93C149.801 42.93 151.813 41.5354 152.379 39.2693H149.986Z" fill="white"/>
<path d="M97.2344 38.0125C97.4261 41.1201 100.002 43.1075 103.836 43.1075C107.934 43.1075 110.498 41.0237 110.498 37.6993C110.498 35.0856 109.036 33.6402 105.489 32.8091L103.584 32.3394C101.332 31.8094 100.421 31.0987 100.421 29.8581C100.421 28.2923 101.835 27.2684 103.956 27.2684C105.969 27.2684 107.359 28.2682 107.61 29.8701H110.222C110.066 26.9432 107.502 24.8835 103.992 24.8835C100.218 24.8835 97.7017 26.9432 97.7017 30.0388C97.7017 32.5923 99.1275 34.11 102.255 34.8447L104.483 35.3867C106.771 35.9287 107.778 36.7237 107.778 38.0486C107.778 39.5904 106.196 40.7106 104.04 40.7106C101.727 40.7106 100.122 39.6627 99.8943 38.0125H97.2344Z" fill="white"/>
<path d="M71.4891 29.8214C69.7783 29.8214 68.2987 30.6813 67.5357 32.1224H67.3508V30.0306H64.9579V46.8928H67.4433V40.7685H67.6398C68.2987 42.1049 69.7205 42.8951 71.5122 42.8951C74.6911 42.8951 76.7141 40.3733 76.7141 36.3524C76.7141 32.3315 74.6911 29.8214 71.4891 29.8214ZM70.784 40.6522C68.7033 40.6522 67.397 39.0021 67.397 36.3641C67.397 33.7145 68.7033 32.0643 70.7955 32.0643C72.8994 32.0643 74.1594 33.6796 74.1594 36.3524C74.1594 39.0369 72.8994 40.6522 70.784 40.6522Z" fill="white"/>
<path d="M85.4106 29.8214C83.6998 29.8214 82.2201 30.6813 81.4572 32.1224H81.2722V30.0306H78.8794V46.8928H81.3647V40.7685H81.5612C82.2201 42.1049 83.642 42.8951 85.4337 42.8951C88.6126 42.8951 90.6355 40.3733 90.6355 36.3524C90.6355 32.3315 88.6126 29.8214 85.4106 29.8214ZM84.7055 40.6522C82.6247 40.6522 81.3185 39.0021 81.3185 36.3641C81.3185 33.7145 82.6247 32.0643 84.717 32.0643C86.8209 32.0643 88.0809 33.6796 88.0809 36.3524C88.0809 39.0369 86.8209 40.6522 84.7055 40.6522Z" fill="white"/>
<path d="M60.4989 42.6859H63.3504L57.1082 25.3051H54.2207L47.9785 42.6859H50.7342L52.3277 38.0727H58.9173L60.4989 42.6859ZM55.5267 28.4609H55.7303L58.2344 35.8083H53.0106L55.5267 28.4609Z" fill="white"/>
<path d="M49.6484 12.1953V20.5799H52.6597C55.145 20.5799 56.5842 19.0401 56.5842 16.3614C56.5842 13.7234 55.1335 12.1953 52.6597 12.1953H49.6484ZM50.9431 13.3806H52.5152C54.2434 13.3806 55.2664 14.4846 55.2664 16.3789C55.2664 18.3021 54.2607 19.3945 52.5152 19.3945H50.9431V13.3806Z" fill="white"/>
<path d="M60.9919 20.7019C62.8299 20.7019 63.9569 19.4643 63.9569 17.4131C63.9569 15.3736 62.8241 14.1302 60.9919 14.1302C59.1539 14.1302 58.0211 15.3736 58.0211 17.4131C58.0211 19.4643 59.1481 20.7019 60.9919 20.7019ZM60.9919 19.5921C59.9111 19.5921 59.3042 18.796 59.3042 17.4131C59.3042 16.0418 59.9111 15.24 60.9919 15.24C62.0669 15.24 62.6796 16.0418 62.6796 17.4131C62.6796 18.7902 62.0669 19.5921 60.9919 19.5921Z" fill="white"/>
<path d="M73.5549 14.2522H72.3122L71.1909 19.0808H71.0927L69.798 14.2522H68.6073L67.3127 19.0808H67.2202L66.0931 14.2522H64.8331L66.5671 20.5799H67.8444L69.1391 15.9198H69.2373L70.5378 20.5799H71.8267L73.5549 14.2522Z" fill="white"/>
<path d="M74.9859 20.5799H76.2286V16.8786C76.2286 15.8908 76.8124 15.2749 77.7313 15.2749C78.6503 15.2749 79.0896 15.7804 79.0896 16.7972V20.5799H80.3323V16.4834C80.3323 14.9785 79.5578 14.1302 78.1533 14.1302C77.2054 14.1302 76.5812 14.5543 76.2748 15.2574H76.1824V14.2522H74.9859V20.5799Z" fill="white"/>
<path d="M82.2893 20.5799H83.532V11.7827H82.2893V20.5799Z" fill="white"/>
<path d="M88.2055 20.7019C90.0435 20.7019 91.1705 19.4643 91.1705 17.4131C91.1705 15.3736 90.0377 14.1302 88.2055 14.1302C86.3675 14.1302 85.2347 15.3736 85.2347 17.4131C85.2347 19.4643 86.3617 20.7019 88.2055 20.7019ZM88.2055 19.5921C87.1247 19.5921 86.5178 18.796 86.5178 17.4131C86.5178 16.0418 87.1247 15.24 88.2055 15.24C89.2805 15.24 89.8932 16.0418 89.8932 17.4131C89.8932 18.7902 89.2805 19.5921 88.2055 19.5921Z" fill="white"/>
<path d="M94.8731 19.6328C94.1968 19.6328 93.7056 19.3016 93.7056 18.7321C93.7056 18.1743 94.0986 17.878 94.9656 17.8199L96.503 17.7211V18.2499C96.503 19.0343 95.8094 19.6328 94.8731 19.6328ZM94.5552 20.6845C95.3817 20.6845 96.0695 20.3242 96.4452 19.6909H96.5434V20.5799H97.7399V16.2568C97.7399 14.9204 96.8498 14.1302 95.2719 14.1302C93.8443 14.1302 92.827 14.8274 92.6999 15.914H93.9021C94.0408 15.4666 94.5205 15.2109 95.2141 15.2109C96.0637 15.2109 96.503 15.5886 96.503 16.2568V16.803L94.7979 16.9018C93.301 16.9948 92.4571 17.6514 92.4571 18.7902C92.4571 19.9465 93.3414 20.6845 94.5552 20.6845Z" fill="white"/>
<path d="M101.957 20.6845C102.824 20.6845 103.558 20.2719 103.933 19.5805H104.032V20.5799H105.222V11.7827H103.98V15.2574H103.887C103.546 14.5602 102.818 14.1476 101.957 14.1476C100.367 14.1476 99.3443 15.4143 99.3443 17.4131C99.3443 19.4178 100.356 20.6845 101.957 20.6845ZM102.309 15.269C103.35 15.269 104.003 16.1 104.003 17.4189C104.003 18.7437 103.356 19.563 102.309 19.563C101.257 19.563 100.627 18.7554 100.627 17.4131C100.627 16.0825 101.263 15.269 102.309 15.269Z" fill="white"/>
<path d="M113.281 20.7019C115.119 20.7019 116.246 19.4643 116.246 17.4131C116.246 15.3736 115.113 14.1302 113.281 14.1302C111.443 14.1302 110.31 15.3736 110.31 17.4131C110.31 19.4643 111.437 20.7019 113.281 20.7019ZM113.281 19.5921C112.2 19.5921 111.593 18.796 111.593 17.4131C111.593 16.0418 112.2 15.24 113.281 15.24C114.356 15.24 114.968 16.0418 114.968 17.4131C114.968 18.7902 114.356 19.5921 113.281 19.5921Z" fill="white"/>
<path d="M117.891 20.5799H119.133V16.8786C119.133 15.8908 119.717 15.2749 120.636 15.2749C121.555 15.2749 121.994 15.7804 121.994 16.7972V20.5799H123.237V16.4834C123.237 14.9785 122.462 14.1302 121.058 14.1302C120.11 14.1302 119.486 14.5543 119.179 15.2574H119.087V14.2522H117.891V20.5799Z" fill="white"/>
<path d="M128.96 12.6775V14.2812H127.96V15.333H128.96V18.9064C128.96 20.1267 129.509 20.6147 130.89 20.6147C131.133 20.6147 131.364 20.5857 131.567 20.5508V19.5107C131.393 19.5282 131.284 19.5398 131.093 19.5398C130.474 19.5398 130.203 19.2493 130.203 18.5869V15.333H131.567V14.2812H130.203V12.6775H128.96Z" fill="white"/>
<path d="M133.235 20.5799H134.477V16.8844C134.477 15.9256 135.044 15.2807 136.061 15.2807C136.94 15.2807 137.408 15.792 137.408 16.803V20.5799H138.65V16.4951C138.65 14.9901 137.824 14.136 136.483 14.136C135.535 14.136 134.87 14.5602 134.564 15.269H134.466V11.7827H133.235V20.5799Z" fill="white"/>
<path d="M143.133 15.1935C144.052 15.1935 144.653 15.8385 144.682 16.8321H141.503C141.573 15.8443 142.214 15.1935 143.133 15.1935ZM144.676 18.8716C144.445 19.3655 143.931 19.6386 143.18 19.6386C142.185 19.6386 141.544 18.9355 141.503 17.8257V17.756H145.948V17.3202C145.948 15.333 144.89 14.1302 143.139 14.1302C141.365 14.1302 140.238 15.4143 140.238 17.4364C140.238 19.4584 141.342 20.7019 143.145 20.7019C144.584 20.7019 145.59 20.0046 145.873 18.8716H144.676Z" fill="white"/>
<path d="M34.4933 28.4212C34.5235 26.0678 35.7807 23.841 37.7751 22.6084C36.5169 20.8019 34.4095 19.6566 32.217 19.5876C29.8785 19.3408 27.6114 20.9944 26.4198 20.9944C25.2051 20.9944 23.3703 19.6121 21.3946 19.653C18.8194 19.7366 16.4186 21.2086 15.1657 23.472C12.4724 28.1598 14.4813 35.0492 17.0613 38.8385C18.3521 40.694 19.8606 42.7666 21.8346 42.6931C23.7662 42.6126 24.4876 41.4548 26.8192 41.4548C29.1292 41.4548 29.806 42.6931 31.82 42.6464C33.8927 42.6126 35.1986 40.7827 36.4441 38.9096C37.3716 37.5875 38.0852 36.1263 38.5587 34.5801C36.1228 33.5444 34.4962 31.08 34.4933 28.4212Z" fill="white"/>
<path d="M30.6893 17.0956C31.8194 15.7317 32.3761 13.9787 32.2413 12.2087C30.5147 12.391 28.9199 13.2206 27.7745 14.5322C26.6544 15.8137 26.0716 17.5359 26.1817 19.2381C27.909 19.256 29.6069 18.4489 30.6893 17.0956Z" fill="white"/>
<rect x="0.5" y="0.5" width="187" height="55" rx="6.5" stroke="#A6A6A6"/>
</svg>
