<svg width="72" height="72" viewBox="0 0 72 72" fill="none" xmlns="http://www.w3.org/2000/svg">
<g filter="url(#filter0_d_717_60652)">
<rect x="4" width="64" height="64" rx="32" fill="url(#paint0_linear_717_60652)" shape-rendering="crispEdges"/>
<rect x="4" width="64" height="64" rx="32" fill="white" fill-opacity="0.3" shape-rendering="crispEdges"/>
<rect x="5" y="1" width="62" height="62" rx="31" stroke="url(#paint1_linear_717_60652)" stroke-width="2" shape-rendering="crispEdges"/>
</g>
<g clip-path="url(#clip0_717_60652)">
<path d="M22.5104 21.9583C22.5104 22.4761 22.9302 22.8958 23.4479 22.8958C23.9657 22.8958 24.3854 22.4761 24.3854 21.9583V20.3854H25.9583C26.4761 20.3854 26.8958 19.9657 26.8958 19.4479C26.8958 18.9302 26.4761 18.5104 25.9583 18.5104H24.3854V16.9375C24.3854 16.4197 23.9657 16 23.4479 16C22.9302 16 22.5104 16.4197 22.5104 16.9375V18.5104H20.9375C20.4197 18.5104 20 18.9302 20 19.4479C20 19.9657 20.4197 20.3854 20.9375 20.3854H22.5104V21.9583Z" fill="url(#paint2_linear_717_60652)"/>
<path d="M22.5104 21.9583C22.5104 22.4761 22.9302 22.8958 23.4479 22.8958C23.9657 22.8958 24.3854 22.4761 24.3854 21.9583V20.3854H25.9583C26.4761 20.3854 26.8958 19.9657 26.8958 19.4479C26.8958 18.9302 26.4761 18.5104 25.9583 18.5104H24.3854V16.9375C24.3854 16.4197 23.9657 16 23.4479 16C22.9302 16 22.5104 16.4197 22.5104 16.9375V18.5104H20.9375C20.4197 18.5104 20 18.9302 20 19.4479C20 19.9657 20.4197 20.3854 20.9375 20.3854H22.5104V21.9583Z" fill="#FFD600" fill-opacity="0.6"/>
<path d="M49.556 43.6146H47.9831V42.0417C47.9831 41.524 47.5633 41.1042 47.0456 41.1042C46.5278 41.1042 46.1081 41.524 46.1081 42.0417V43.6146H44.5352C44.0174 43.6146 43.5977 44.0344 43.5977 44.5521C43.5977 45.0699 44.0174 45.4896 44.5352 45.4896H46.1081V47.0626C46.1081 47.5803 46.5278 48.0001 47.0456 48.0001C47.5633 48.0001 47.9831 47.5803 47.9831 47.0626V45.4896H49.556C50.0738 45.4896 50.4935 45.0699 50.4935 44.5521C50.4935 44.0344 50.0738 43.6146 49.556 43.6146Z" fill="url(#paint3_linear_717_60652)"/>
<path d="M49.556 43.6146H47.9831V42.0417C47.9831 41.524 47.5633 41.1042 47.0456 41.1042C46.5278 41.1042 46.1081 41.524 46.1081 42.0417V43.6146H44.5352C44.0174 43.6146 43.5977 44.0344 43.5977 44.5521C43.5977 45.0699 44.0174 45.4896 44.5352 45.4896H46.1081V47.0626C46.1081 47.5803 46.5278 48.0001 47.0456 48.0001C47.5633 48.0001 47.9831 47.5803 47.9831 47.0626V45.4896H49.556C50.0738 45.4896 50.4935 45.0699 50.4935 44.5521C50.4935 44.0344 50.0738 43.6146 49.556 43.6146Z" fill="#FFD600" fill-opacity="0.6"/>
<path d="M51.0633 18.5105H50.4945V17.9417C50.4945 17.4239 50.0748 17.0042 49.557 17.0042C49.0393 17.0042 48.6195 17.4239 48.6195 17.9417V18.5105H48.0508C47.533 18.5105 47.1133 18.9302 47.1133 19.448C47.1133 19.9657 47.533 20.3855 48.0508 20.3855H48.6196V20.9542C48.6196 21.472 49.0393 21.8917 49.5571 21.8917C50.0748 21.8917 50.4946 21.472 50.4946 20.9542V20.3855H51.0633C51.5811 20.3855 52.0008 19.9657 52.0008 19.448C52.0008 18.9302 51.581 18.5105 51.0633 18.5105Z" fill="url(#paint4_linear_717_60652)"/>
<path d="M51.0633 18.5105H50.4945V17.9417C50.4945 17.4239 50.0748 17.0042 49.557 17.0042C49.0393 17.0042 48.6195 17.4239 48.6195 17.9417V18.5105H48.0508C47.533 18.5105 47.1133 18.9302 47.1133 19.448C47.1133 19.9657 47.533 20.3855 48.0508 20.3855H48.6196V20.9542C48.6196 21.472 49.0393 21.8917 49.5571 21.8917C50.0748 21.8917 50.4946 21.472 50.4946 20.9542V20.3855H51.0633C51.5811 20.3855 52.0008 19.9657 52.0008 19.448C52.0008 18.9302 51.581 18.5105 51.0633 18.5105Z" fill="#FFD600" fill-opacity="0.6"/>
<path d="M26.4598 42.1083H25.891V41.5396C25.891 41.0218 25.4713 40.6021 24.9535 40.6021C24.4358 40.6021 24.016 41.0218 24.016 41.5396V42.1083H23.4473C22.9295 42.1083 22.5098 42.5281 22.5098 43.0458C22.5098 43.5636 22.9295 43.9833 23.4473 43.9833H24.016V44.5521C24.016 45.0698 24.4358 45.4896 24.9535 45.4896C25.4713 45.4896 25.891 45.0698 25.891 44.5521V43.9833H26.4598C26.9775 43.9833 27.3973 43.5636 27.3973 43.0458C27.3973 42.5281 26.9775 42.1083 26.4598 42.1083Z" fill="url(#paint5_linear_717_60652)"/>
<path d="M26.4598 42.1083H25.891V41.5396C25.891 41.0218 25.4713 40.6021 24.9535 40.6021C24.4358 40.6021 24.016 41.0218 24.016 41.5396V42.1083H23.4473C22.9295 42.1083 22.5098 42.5281 22.5098 43.0458C22.5098 43.5636 22.9295 43.9833 23.4473 43.9833H24.016V44.5521C24.016 45.0698 24.4358 45.4896 24.9535 45.4896C25.4713 45.4896 25.891 45.0698 25.891 44.5521V43.9833H26.4598C26.9775 43.9833 27.3973 43.5636 27.3973 43.0458C27.3973 42.5281 26.9775 42.1083 26.4598 42.1083Z" fill="#FFD600" fill-opacity="0.6"/>
<path d="M49.1297 37.1225L44.4976 30.7475L46.9327 23.2522C47.0417 22.917 46.9533 22.5489 46.704 22.2996C46.4547 22.0503 46.0866 21.962 45.7514 22.071L38.2562 24.506L31.881 19.8739C31.5959 19.6666 31.2185 19.637 30.9044 19.797C30.5902 19.9571 30.3925 20.2798 30.3925 20.6323V28.5129L24.0173 33.145C23.7322 33.3521 23.5873 33.7018 23.6424 34.05C23.6976 34.3982 23.9434 34.6861 24.2787 34.795L31.7735 37.2301L34.2086 44.7248C34.3175 45.0601 34.6054 45.306 34.9535 45.3611C35.3017 45.4163 35.6514 45.2714 35.8586 44.9863L40.4907 38.6111H48.3712C48.7238 38.6111 49.0465 38.4133 49.2065 38.0992C49.3666 37.785 49.3369 37.4077 49.1297 37.1225Z" fill="url(#paint6_linear_717_60652)"/>
<path d="M49.1297 37.1225L44.4976 30.7475L46.9327 23.2522C47.0417 22.917 46.9533 22.5489 46.704 22.2996C46.4547 22.0503 46.0866 21.962 45.7514 22.071L38.2562 24.506L31.881 19.8739C31.5959 19.6666 31.2185 19.637 30.9044 19.797C30.5902 19.9571 30.3925 20.2798 30.3925 20.6323V28.5129L24.0173 33.145C23.7322 33.3521 23.5873 33.7018 23.6424 34.05C23.6976 34.3982 23.9434 34.6861 24.2787 34.795L31.7735 37.2301L34.2086 44.7248C34.3175 45.0601 34.6054 45.306 34.9535 45.3611C35.3017 45.4163 35.6514 45.2714 35.8586 44.9863L40.4907 38.6111H48.3712C48.7238 38.6111 49.0465 38.4133 49.2065 38.0992C49.3666 37.785 49.3369 37.4077 49.1297 37.1225Z" fill="#FFD600" fill-opacity="0.6"/>
<path d="M46.7039 22.2996C46.9532 22.5488 47.0416 22.9169 46.9326 23.2521L44.4975 30.7474L49.1296 37.1224C49.3368 37.4076 49.3665 37.7849 49.2064 38.0991C49.0464 38.4132 48.7236 38.611 48.3711 38.611H40.4906L35.8586 44.9862C35.6514 45.2713 35.3017 45.4162 34.9535 45.3611C34.6053 45.3059 34.3174 45.0601 34.2086 44.7247L31.7734 37.23L46.7039 22.2996Z" fill="url(#paint7_linear_717_60652)"/>
<path d="M46.7039 22.2996C46.9532 22.5488 47.0416 22.9169 46.9326 23.2521L44.4975 30.7474L49.1296 37.1224C49.3368 37.4076 49.3665 37.7849 49.2064 38.0991C49.0464 38.4132 48.7236 38.611 48.3711 38.611H40.4906L35.8586 44.9862C35.6514 45.2713 35.3017 45.4162 34.9535 45.3611C34.6053 45.3059 34.3174 45.0601 34.2086 44.7247L31.7734 37.23L46.7039 22.2996Z" fill="#FFD600" fill-opacity="0.6"/>
</g>
<defs>
<filter id="filter0_d_717_60652" x="0" y="0" width="72" height="72" filterUnits="userSpaceOnUse" color-interpolation-filters="sRGB">
<feFlood flood-opacity="0" result="BackgroundImageFix"/>
<feColorMatrix in="SourceAlpha" type="matrix" values="0 0 0 0 0 0 0 0 0 0 0 0 0 0 0 0 0 0 127 0" result="hardAlpha"/>
<feOffset dy="4"/>
<feGaussianBlur stdDeviation="2"/>
<feComposite in2="hardAlpha" operator="out"/>
<feColorMatrix type="matrix" values="0 0 0 0 0 0 0 0 0 0 0 0 0 0 0 0 0 0 0.25 0"/>
<feBlend mode="normal" in2="BackgroundImageFix" result="effect1_dropShadow_717_60652"/>
<feBlend mode="normal" in="SourceGraphic" in2="effect1_dropShadow_717_60652" result="shape"/>
</filter>
<linearGradient id="paint0_linear_717_60652" x1="-36.6667" y1="-13.3333" x2="55.3333" y2="45.3333" gradientUnits="userSpaceOnUse">
<stop stop-color="#8E1EFF"/>
<stop offset="0.0001" stop-color="#8E1EFF" stop-opacity="0"/>
<stop offset="0.5" stop-color="#C84E7C" stop-opacity="0.5"/>
<stop offset="1" stop-color="#FF7A00" stop-opacity="0"/>
</linearGradient>
<linearGradient id="paint1_linear_717_60652" x1="66.3797" y1="48.3903" x2="4.76708" y2="46.9152" gradientUnits="userSpaceOnUse">
<stop stop-color="#8E1EFF"/>
<stop offset="0.0001" stop-color="#8E1EFF"/>
<stop offset="0.265622" stop-color="#F1D68F"/>
<stop offset="0.5" stop-color="#C84E7C"/>
<stop offset="0.812503" stop-color="#F1D68F"/>
<stop offset="1" stop-color="#FF7A00"/>
</linearGradient>
<linearGradient id="paint2_linear_717_60652" x1="20" y1="19.4479" x2="26.8958" y2="19.4479" gradientUnits="userSpaceOnUse">
<stop stop-color="#8E1EFF"/>
<stop offset="0.0001" stop-color="#8E1EFF" stop-opacity="0"/>
<stop offset="0.5" stop-color="#C84E7C"/>
<stop offset="1" stop-color="#FF7A00" stop-opacity="0"/>
</linearGradient>
<linearGradient id="paint3_linear_717_60652" x1="43.5977" y1="44.5522" x2="50.4935" y2="44.5522" gradientUnits="userSpaceOnUse">
<stop stop-color="#8E1EFF"/>
<stop offset="0.0001" stop-color="#8E1EFF" stop-opacity="0"/>
<stop offset="0.5" stop-color="#C84E7C"/>
<stop offset="1" stop-color="#FF7A00" stop-opacity="0"/>
</linearGradient>
<linearGradient id="paint4_linear_717_60652" x1="47.1133" y1="19.4479" x2="52.0008" y2="19.4479" gradientUnits="userSpaceOnUse">
<stop stop-color="#8E1EFF"/>
<stop offset="0.0001" stop-color="#8E1EFF" stop-opacity="0"/>
<stop offset="0.5" stop-color="#C84E7C"/>
<stop offset="1" stop-color="#FF7A00" stop-opacity="0"/>
</linearGradient>
<linearGradient id="paint5_linear_717_60652" x1="22.5098" y1="43.0458" x2="27.3973" y2="43.0458" gradientUnits="userSpaceOnUse">
<stop stop-color="#8E1EFF"/>
<stop offset="0.0001" stop-color="#8E1EFF" stop-opacity="0"/>
<stop offset="0.5" stop-color="#C84E7C"/>
<stop offset="1" stop-color="#FF7A00" stop-opacity="0"/>
</linearGradient>
<linearGradient id="paint6_linear_717_60652" x1="23.6309" y1="32.5338" x2="49.3087" y2="32.5338" gradientUnits="userSpaceOnUse">
<stop stop-color="#8E1EFF"/>
<stop offset="0.0001" stop-color="#8E1EFF" stop-opacity="0"/>
<stop offset="0.5" stop-color="#C84E7C"/>
<stop offset="1" stop-color="#FF7A00" stop-opacity="0"/>
</linearGradient>
<linearGradient id="paint7_linear_717_60652" x1="31.7734" y1="33.8361" x2="49.3086" y2="33.8361" gradientUnits="userSpaceOnUse">
<stop stop-color="#8E1EFF"/>
<stop offset="0.0001" stop-color="#8E1EFF" stop-opacity="0"/>
<stop offset="0.5" stop-color="#C84E7C"/>
<stop offset="1" stop-color="#FF7A00" stop-opacity="0"/>
</linearGradient>
<clipPath id="clip0_717_60652">
<rect width="32" height="32" fill="white" transform="translate(20 16)"/>
</clipPath>
</defs>
</svg>
