<svg width="18" height="14" viewBox="0 0 18 14" fill="none" xmlns="http://www.w3.org/2000/svg">
<path d="M18 0V3.8004C18 4.97405 17.7891 6.18496 17.3674 7.43313C16.9265 8.69993 16.3227 9.90153 15.5559 11.0379C14.77 12.1929 13.8786 13.1803 12.8818 14L9.43131 11.9042C10.1981 10.7305 10.8307 9.49168 11.3291 8.18762C11.8083 6.9022 12.0479 5.4491 12.0479 3.82834V0H18ZM8.56869 0V3.8004C8.56869 4.97405 8.35783 6.18496 7.9361 7.43313C7.49521 8.69993 6.89137 9.90153 6.1246 11.0379C5.33866 12.1929 4.44728 13.1803 3.45048 14L0 11.9042C0.766773 10.7305 1.39936 9.49168 1.89776 8.18762C2.377 6.9022 2.61661 5.4491 2.61661 3.82834V0H8.56869Z" fill="#7ECDC6"/>
</svg>
