<svg width="18" height="14" viewBox="0 0 18 14" fill="none" xmlns="http://www.w3.org/2000/svg">
<path d="M0 14V10.1996C0 9.02595 0.210863 7.81504 0.632588 6.56687C1.07348 5.30007 1.67732 4.09847 2.44409 2.96208C3.23003 1.80705 4.12141 0.819694 5.11821 0L8.56869 2.09581C7.80192 3.26946 7.16933 4.50832 6.67093 5.81238C6.19169 7.0978 5.95208 8.5509 5.95208 10.1717V14H0ZM9.43131 14V10.1996C9.43131 9.02595 9.64217 7.81504 10.0639 6.56687C10.5048 5.30007 11.1086 4.09847 11.8754 2.96208C12.6613 1.80705 13.5527 0.819694 14.5495 0L18 2.09581C17.2332 3.26946 16.6006 4.50832 16.1022 5.81238C15.623 7.0978 15.3834 8.5509 15.3834 10.1717V14H9.43131Z" fill="#7ECDC6"/>
</svg>
